HIERARCHY
ROOT joint_0
{
	OFFSET 0.000000 0.000000 0.000000
	CHANNELS 6 Xposition Yposition Zposition Zrotation Yrotation Xrotation 
	JOINT joint_1
	{
		OFFSET 4.520508 -1.939880 86.268921
		CHANNELS 3 Zrotation Yrotation Xrotation
		JOINT joint_2
		{
			OFFSET -4.459717 -0.438538 78.934082
			CHANNELS 3 Zrotation Yrotation Xrotation
			JOINT joint_3
			{
				OFFSET -5.197754 -0.781128 78.796997
				CHANNELS 3 Zrotation Yrotation Xrotation
				JOINT joint_4
				{
					OFFSET 2.952026 -3.710571 109.812988
					CHANNELS 3 Zrotation Yrotation Xrotation
					JOINT joint_5
					{
						OFFSET 24.716797 -5.488037 87.903931
						CHANNELS 3 Zrotation Yrotation Xrotation
						End Site
						{
							OFFSET 0.000000 0.000000 0.000000
						}
					}
				}
				JOINT joint_6
				{
					OFFSET -3.154419 -25.484680 60.934937
					CHANNELS 3 Zrotation Yrotation Xrotation
					JOINT joint_7
					{
						OFFSET -28.997192 -144.472229 -32.671997
						CHANNELS 3 Zrotation Yrotation Xrotation
						JOINT joint_8
						{
							OFFSET 19.867676 -18.614380 -249.897949
							CHANNELS 3 Zrotation Yrotation Xrotation
							JOINT joint_9
							{
								OFFSET 5.281982 -13.816650 -264.993042
								CHANNELS 3 Zrotation Yrotation Xrotation
								End Site
								{
									OFFSET 0.000000 0.000000 0.000000
								}
							}
						}
					}
				}
				JOINT joint_10
				{
					OFFSET 6.494995 21.336792 62.257935
					CHANNELS 3 Zrotation Yrotation Xrotation
					JOINT joint_11
					{
						OFFSET 31.106567 145.200745 -27.007935
						CHANNELS 3 Zrotation Yrotation Xrotation
						JOINT joint_12
						{
							OFFSET 29.119141 24.684326 -248.460083
							CHANNELS 3 Zrotation Yrotation Xrotation
							JOINT joint_13
							{
								OFFSET 21.220093 31.248413 -262.703979
								CHANNELS 3 Zrotation Yrotation Xrotation
								End Site
								{
									OFFSET 0.000000 0.000000 0.000000
								}
							}
						}
					}
				}
			}
		}
	}
	JOINT joint_14
	{
		OFFSET -15.458496 -88.861694 -109.593018
		CHANNELS 3 Zrotation Yrotation Xrotation
		JOINT joint_15
		{
			OFFSET -6.193359 6.837952 -506.710999
			CHANNELS 3 Zrotation Yrotation Xrotation
			JOINT joint_16
			{
				OFFSET -35.096680 13.289795 -435.677025
				CHANNELS 3 Zrotation Yrotation Xrotation
				JOINT joint_17
				{
					OFFSET 158.491211 -33.916565 -71.771002
					CHANNELS 3 Zrotation Yrotation Xrotation
					End Site
					{
						OFFSET 0.000000 0.000000 0.000000
					}
				}
			}
		}
	}
	JOINT joint_18
	{
		OFFSET 23.116943 86.574158 -110.082031
		CHANNELS 3 Zrotation Yrotation Xrotation
		JOINT joint_19
		{
			OFFSET -6.125854 -0.283569 -506.757019
			CHANNELS 3 Zrotation Yrotation Xrotation
			JOINT joint_20
			{
				OFFSET -63.240234 11.589966 -432.537994
				CHANNELS 3 Zrotation Yrotation Xrotation
				JOINT joint_21
				{
					OFFSET 156.074219 -41.487305 -73.077999
					CHANNELS 3 Zrotation Yrotation Xrotation
					End Site
					{
						OFFSET 0.000000 0.000000 0.000000
					}
				}
			}
		}
	}
}
MOTION
Frames: 7
Frame Time: 0.016667
-1314.267090 896.320374 1142.264038 8.902889 2.046617 0.539248 -0.425618 -2.263818 -0.823845 -0.358803 0.452528 0.135254 -0.383350 -0.415350 -0.105550 -0.329234 4.722165 2.102796 0.000000 0.000000 0.000000 1.615899 0.798990 -1.696495 0.259626 0.357054 2.049066 0.023180 -2.046135 -3.150728 0.000000 0.000000 0.000000 -2.648742 -0.291409 0.782629 0.003389 0.209417 0.741870 -0.709957 -4.672374 -1.250510 0.000000 0.000000 0.000000 -0.571997 -1.612125 -2.227352 -0.568631 -0.342771 0.123893 -0.516129 0.993398 -0.021240 0.000000 0.000000 0.000000 0.293083 -1.175089 0.712892 0.321688 -2.715053 -1.654436 0.153621 2.002171 0.604367 0.000000 0.000000 0.000000 
-1314.456543 896.414307 1142.251953 8.894531 2.018108 0.526151 -0.417305 -2.259555 -0.834217 -0.349436 0.449239 0.139041 -0.374334 -0.412677 -0.108444 -0.331664 4.739078 2.114013 0.000000 0.000000 0.000000 1.606279 0.800051 -1.675436 0.261709 0.355112 2.071889 0.023186 -2.049666 -3.156249 0.000000 0.000000 0.000000 -2.633434 -0.288720 0.785418 0.001868 0.213041 0.725669 -0.710178 -4.667068 -1.256845 0.000000 0.000000 0.000000 -0.570502 -1.601991 -2.223488 -0.566996 -0.319612 0.131328 -0.514728 0.987448 -0.021877 0.000000 0.000000 0.000000 0.295903 -1.154095 0.719115 0.324664 -2.710945 -1.652158 0.156526 1.998197 0.604670 0.000000 0.000000 0.000000 
-1314.623657 896.480469 1142.241943 8.885452 1.988406 0.513420 -0.411493 -2.261046 -0.841898 -0.342875 0.447733 0.139287 -0.367755 -0.411405 -0.108668 -0.330969 4.764648 2.115958 0.000000 0.000000 0.000000 1.596335 0.801110 -1.656472 0.263134 0.353865 2.089504 0.023471 -2.055516 -3.157572 0.000000 0.000000 0.000000 -2.617876 -0.278679 0.790323 0.000185 0.225873 0.702598 -0.709635 -4.663051 -1.253482 0.000000 0.000000 0.000000 -0.567958 -1.584038 -2.211310 -0.564434 -0.308023 0.124188 -0.513191 0.985658 -0.021563 0.000000 0.000000 0.000000 0.298719 -1.128836 0.728232 0.327719 -2.710944 -1.652785 0.159285 1.995660 0.605289 0.000000 0.000000 0.000000 
-1314.774536 896.525330 1142.234009 8.876198 1.959169 0.502406 -0.407036 -2.267153 -0.850211 -0.337632 0.446593 0.139156 -0.362400 -0.411339 -0.107550 -0.327300 4.798008 2.108913 0.000000 0.000000 0.000000 1.585095 0.803026 -1.638710 0.263900 0.354075 2.102212 0.024046 -2.065218 -3.156324 0.000000 0.000000 0.000000 -2.602385 -0.263788 0.795341 -0.001563 0.244492 0.675295 -0.708406 -4.658519 -1.243575 0.000000 0.000000 0.000000 -0.565004 -1.562159 -2.195971 -0.561559 -0.304390 0.109403 -0.511684 0.986951 -0.020603 0.000000 0.000000 0.000000 0.301731 -1.101198 0.738462 0.331025 -2.715598 -1.656766 0.162018 1.995719 0.606587 0.000000 0.000000 0.000000 
-1314.933472 896.562195 1142.225952 8.870531 1.933356 0.494344 -0.403541 -2.277239 -0.857031 -0.333434 0.447666 0.138827 -0.358239 -0.412582 -0.108313 -0.321128 4.828958 2.092663 0.000000 0.000000 0.000000 1.570503 0.805155 -1.621850 0.264099 0.354671 2.110031 0.024859 -2.078490 -3.153352 0.000000 0.000000 0.000000 -2.590854 -0.248898 0.800533 -0.003112 0.263688 0.649070 -0.706851 -4.653078 -1.231834 0.000000 0.000000 0.000000 -0.563280 -1.542247 -2.184239 -0.559973 -0.305033 0.096481 -0.511123 0.989924 -0.019712 0.000000 0.000000 0.000000 0.303620 -1.077715 0.747468 0.333216 -2.721561 -1.664001 0.163331 1.997979 0.607806 0.000000 0.000000 0.000000 
-1315.111694 896.591919 1142.218018 8.871688 1.911302 0.490047 -0.403470 -2.289357 -0.863663 -0.332629 0.449894 0.139515 -0.357516 -0.414164 -0.108476 -0.310367 4.853385 2.059286 0.000000 0.000000 0.000000 1.554125 0.806373 -1.608508 0.263699 0.354478 2.112415 0.026049 -2.098567 -3.148973 0.000000 0.000000 0.000000 -2.581331 -0.234455 0.801941 -0.004292 0.281286 0.626511 -0.704679 -4.645009 -1.217839 0.000000 0.000000 0.000000 -0.564305 -1.524433 -2.178386 -0.561250 -0.311469 0.088549 -0.512715 0.996241 -0.019081 0.000000 0.000000 0.000000 0.303815 -1.061436 0.754784 0.333721 -2.725375 -1.675580 0.162408 2.002884 0.608683 0.000000 0.000000 0.000000 
-1315.297119 896.612854 1142.208984 8.876219 1.892405 0.488641 -0.405248 -2.303898 -0.869253 -0.333727 0.451857 0.140562 -0.358804 -0.416222 -0.109796 -0.296177 4.875954 2.013592 0.000000 0.000000 0.000000 1.537629 0.808034 -1.597107 0.262696 0.355331 2.110400 0.027526 -2.123539 -3.143087 0.000000 0.000000 0.000000 -2.572635 -0.219568 0.803137 -0.005372 0.299350 0.604447 -0.702167 -4.636212 -1.201529 0.000000 0.000000 0.000000 -0.566391 -1.508107 -2.175991 -0.563661 -0.322631 0.082387 -0.515096 1.004420 -0.018408 0.000000 0.000000 0.000000 0.303097 -1.048845 0.761174 0.333332 -2.730763 -1.690911 0.160219 2.010202 0.609610 0.000000 0.000000 0.000000 
